<svg width="121" height="141" viewBox="0 0 121 141" fill="none" xmlns="http://www.w3.org/2000/svg">
<path fill-rule="evenodd" clip-rule="evenodd" d="M99.846 46.6753C97.407 22.145 76.7093 2.98765 51.537 2.98765C24.724 2.98765 2.98765 24.724 2.98765 51.537C2.98765 74.1774 18.4851 93.1982 39.4506 98.57C40.5952 99.9335 41.8573 101.213 43.2278 102.408C18.7155 98.4345 0 77.1714 0 51.537C0 23.0739 23.0739 0 51.537 0C78.7733 0 101.075 21.1277 102.947 47.888C101.914 47.4619 100.88 47.0576 99.846 46.6753ZM90.7986 92.3131C89.4481 91.388 87.9474 90.4797 86.2964 89.5882C86.2302 89.5525 86.1639 89.5168 86.0973 89.4811C85.2503 89.0278 84.3643 88.5788 83.4394 88.1341C82.8058 87.8295 82.1538 87.5269 81.4836 87.2264C73.6284 83.6484 68.8036 81.1835 67.0092 79.8318C65.2548 78.4801 64.3775 76.9495 64.3775 75.24C64.3775 73.6498 65.0753 72.3179 66.4709 71.2445C67.8665 70.1711 70.0995 69.6344 73.1698 69.6344C79.0286 69.6344 85.9731 71.4514 94.0032 75.0854L94.1833 75.1671L94.3431 75.24L96.0543 70.9394L97.2251 67.997L101.58 57.0517C101.004 56.7963 100.429 56.5487 99.8549 56.3089C91.041 52.6297 82.3852 50.7901 73.8876 50.7901C72.6285 50.7901 71.4025 50.824 70.2096 50.8919C69.2028 50.9491 68.2196 51.0305 67.26 51.136L67.2182 51.1406C60.0799 51.9316 54.2484 54.0609 49.7237 57.5287C47.4943 59.2375 45.6888 61.2021 44.3073 63.4227C43.816 64.2125 43.3783 65.0346 42.9943 65.889C42.9666 65.9505 42.9393 66.0122 42.9122 66.0741C41.5917 69.0886 40.9314 72.5017 40.9314 76.3134C40.9314 80.607 41.6093 84.3242 42.965 87.4649C44.3606 90.6056 46.474 93.3886 49.305 95.8137C50.902 97.1626 52.9368 98.5361 55.4097 99.9342L55.4934 99.9815C56.8904 100.769 58.426 101.563 60.1003 102.366C60.7664 102.685 61.4545 103.006 62.1645 103.328C68.4647 106.15 72.3325 108.019 73.7679 108.933C75.2433 109.847 76.2999 110.762 76.9379 111.676C77.6158 112.551 77.9547 113.585 77.9547 114.777C77.9547 116.686 77.1373 118.256 75.5025 119.488C73.8676 120.681 71.2957 121.277 67.7868 121.277C63.7196 121.277 59.2537 120.641 54.389 119.369C49.5244 118.057 44.8391 116.248 40.3333 113.942V134.933C44.5999 136.961 48.7069 138.392 52.6545 139.227C56.602 140.022 61.4866 140.42 67.3083 140.42C74.2863 140.42 80.3671 139.267 85.5508 136.961C88.2295 135.749 90.5835 134.293 92.6127 132.592C93.1968 134.015 93.9495 135.238 94.8707 136.263C97.3881 139.034 101.497 140.42 107.197 140.42C109.975 140.42 112.391 140.203 114.446 139.77C116.529 139.366 118.714 138.673 121 137.692V125.352C117.817 126.477 115.083 127.04 112.797 127.04C109.729 127.04 108.196 125.453 108.196 122.277V103.182H120.262V90.4956H108.196V80.6667H97.0843L92.7005 90.9719L90.7986 92.3131ZM52.284 32.8642C59.0174 32.8642 64.8838 36.5768 67.9478 42.0666C66.8382 42.1591 65.7432 42.2791 64.664 42.4276C61.9786 38.4598 57.4358 35.8519 52.284 35.8519C44.0338 35.8519 37.3457 42.5399 37.3457 50.7901C37.3457 52.7207 37.7119 54.5657 38.3787 56.2595C37.665 57.1873 37.0117 58.1489 36.4186 59.1423C35.1028 56.6481 34.358 53.8061 34.358 50.7901C34.358 40.8899 42.3837 32.8642 52.284 32.8642Z" fill="#38B2AC"/>
</svg>
